<?xml version="1.0" encoding="utf-8"?>
<!-- Generator: Adobe Illustrator 28.0.0, SVG Export Plug-In . SVG Version: 6.00 Build 0)  -->
<svg version="1.1" id="Layer_1" xmlns="http://www.w3.org/2000/svg" xmlns:xlink="http://www.w3.org/1999/xlink" x="0px" y="0px"
	 viewBox="0 0 1073.9 157.7" style="enable-background:new 0 0 1073.9 157.7;" xml:space="preserve">
<style type="text/css">
	.st0{fill:#FFFFFF;}
</style>
<g>
	<g>
		<path class="st0" d="M0,157.7l40.7-155h106l40.7,155h-30.1l-8.4-34.1H38.5l-8.4,34.1H0z M45.4,96.6h96.7l-48.4-27V21.1l0,0
			L45.4,96.6z"/>
	</g>
	<path class="st0" d="M207.7,157.7V2.7h63.8c9.7,0,18.3,2,25.8,5.9c7.5,3.9,13.3,9.4,17.5,16.5s6.3,15.5,6.3,25.2v3.1
		c0,9.6-2.2,18-6.5,25.1c-4.4,7.2-10.3,12.7-17.7,16.6c-7.5,3.9-15.9,5.9-25.4,5.9h-34.5v56.7H207.7z M236.9,74.5h31.7
		c6.9,0,12.5-1.9,16.8-5.8c4.3-3.8,6.4-9.1,6.4-15.7v-2.2c0-6.6-2.1-11.9-6.4-15.7c-4.3-3.8-9.9-5.8-16.8-5.8h-31.7V74.5z"/>
	<path class="st0" d="M318.8,157.7l40.7-155h50.9l40.7,155h-30.1l-8.4-34.1h-55.4l-8.4,34.1H318.8z M364.2,96.6h41.6L387,21.1h-4
		L364.2,96.6z"/>
	<path class="st0" d="M469.8,157.7V2.7h67.3c9.7,0,18.2,1.7,25.5,5.1c7.2,3.4,12.8,8.2,16.8,14.4c4,6.2,6,13.5,6,21.9v2.7
		c0,9.3-2.2,16.8-6.6,22.6c-4.4,5.8-9.9,10-16.4,12.6v4c5.9,0.3,10.5,2.3,13.7,6.1c3.2,3.8,4.9,8.7,4.9,14.9v50.7h-29.2v-46.5
		c0-3.5-0.9-6.4-2.8-8.6c-1.8-2.2-4.9-3.3-9.2-3.3h-40.7v58.5H469.8z M499.1,72.7h35c6.9,0,12.4-1.9,16.3-5.6
		c3.9-3.8,5.9-8.7,5.9-14.9v-2.2c0-6.2-1.9-11.2-5.8-14.9c-3.8-3.8-9.3-5.6-16.4-5.6h-35V72.7z"/>
	<path class="st0" d="M609.8,157.7V2.7H639v61.6h4l50.3-61.6h37.4L666,79.1l66.9,78.6h-38.5L643,94.8h-4v62.9H609.8z"/>
	<path class="st0" d="M748.4,157.7V2.7h29.2v155H748.4z"/>
	<path class="st0" d="M806.8,157.7V2.7h55.6l30.8,135.1h4V2.7h28.8v155h-55.6L839.6,22.6h-4v135.1H806.8z"/>
	<path class="st0" d="M1008.8,160.8c-10.6,0-20.3-2.4-28.9-7.2s-15.5-11.8-20.6-21c-5.1-9.2-7.6-20.5-7.6-33.8V61.6
		c0-19.9,5.6-35.2,16.8-45.9C979.7,5,994.9-0.4,1014.1-0.4c19,0,33.8,5.1,44.2,15.2c10.4,10.1,15.6,23.8,15.6,41.1v0.9h-28.8V55
		c0-5.5-1.1-10.4-3.4-14.8c-2.3-4.4-5.7-7.9-10.3-10.5c-4.6-2.6-10.3-3.9-17.3-3.9c-10.3,0-18.5,3.2-24.4,9.5
		c-5.9,6.3-8.9,15-8.9,25.9v38.1c0,10.8,3,19.5,8.9,26c5.9,6.6,14.2,9.9,24.8,9.9c10.6,0,18.4-2.8,23.2-8.4
		c4.9-5.6,7.3-12.7,7.3-21.3v-2.2h-36.8V78.4h65.5v79.3h-27v-14.8h-4c-1,2.5-2.7,5.2-5,8c-2.3,2.8-5.7,5.2-10.3,7.1
		C1023,159.8,1016.7,160.8,1008.8,160.8z"/>
</g>
</svg>
